<svg viewBox="0 0 949 598.62" xmlns="http://www.w3.org/2000/svg"><path d="m524.32 598.62 424.68-219.62-286-142-189 94-239.48-118.06-234.52 124.06z" fill="#756b67"/><path d="m0 317v20l949 42v-20z" fill="#756b67"/><path d="m524.32 578.62 424.68-219.62-286-142-189 94-239.48-118.06-234.52 124.06z" fill="#938c89"/><path d="m0 123 235-123 235 118 193-97 286 145v193l-286-142-189 94-239.48-118.06-234.52 124.06z" fill="#f7d7cd"/><path d="m470 118 193-97v196l-189 94z" fill="#d8bbb4"/><path d="m0 123 235-123-.48 192.94-234.52 124.06z" fill="#d8bbb4"/><path d="m855.33 214 47.34 25.33v96.67l-47.34-23.51z" fill="#756b67"/><path d="m853.17 215.83 47.33 25.34v96.66l-47.33-23.5z" fill="#756b67"/><path d="m521 144v97l96-49-2-98z" fill="#f58382"/><path d="m523 146.25v97l96-49-2-98z" fill="#f58382"/><path d="m615 94 2 2.25-94 147-2-2.25z" fill="#f58382"/><g fill="#756b67"><path d="m43.5 145.5 144-73 23.5 11.5-140.5 76z"/><path d="m43.5 148.33 144-73 23.5 11.5-140.5 76z"/><path d="m43.5 145.5v2.83l167.5-61.5v-2.83z"/><path d="m43.5 192.25 144-73 23.5 11.5-140.5 76z"/><path d="m43.5 195.08 144-73 23.5 11.5-140.5 76z"/><path d="m43.5 192.25v2.83l167.5-61.5v-2.83z"/><path d="m43.5 242.25 144-73 23.5 11.5-140.5 76z"/><path d="m43.5 245.08 144-73 23.5 11.5-140.5 76z"/><path d="m43.5 242.25v2.83l167.5-61.5v-2.83z"/><path d="m855.33 214-2.16 1.83 47.33 122 2.17-1.83z"/></g><path d="m324.5 151v48.5l50 24.5v-49.5z" fill="#40a89a"/><path d="m324.83 94.33v48.5l50 24.5v-49.5z" fill="#40a89a"/><path d="m265 123.5v48.5l50 24.5v-49.5z" fill="#368f83"/><path d="m265.33 66.83v48.5l50 24.5v-49.5z" fill="#40a89a"/><path d="m383.83 179.67v48.5l50 24.5v-49.5z" fill="#40a89a"/><path d="m383.83 123v48.5l50 24.5v-49.5z" fill="#286960"/></svg>