<svg clip-rule="evenodd" fill-rule="evenodd" height="186" stroke-linejoin="round" stroke-miterlimit="2" width="200" xmlns="http://www.w3.org/2000/svg"><path d="m187.156 177.006c-20.522-3.28-40.634-8.925-59.85-16.848-32.791-13.519-63.737-33.636-87.045-60.595-23.439-27.113-38.517-62.053-37.518-98.262.047-1.738-2.648-1.731-2.696 0-.564 20.447 3.947 40.726 12.201 59.389 14.484 32.752 40.272 59.135 69.91 78.658 31.389 20.677 67.344 34.375 104.437 40.282-.032.159-.062.318-.092.478-.202 1.101-.778 2.911-.066 3.948.757 1.102 2.76 1.068 3.941 1.059 1.305-.009 2.254-.496 3.283-.974.243-.039.471-.144.661-.293.278-.117.568-.225.877-.318 1.967-.594 6.306-1.818 4.27-4.875-.853-1.282-2.724-1.657-3.991-2.376-1.918-1.089-3.625-2.494-5.322-3.89-.505-.415-1.158-.405-1.646-.142-.445.18-.802.575-.833 1.186-.061 1.218-.273 2.398-.521 3.573z" fill-rule="nonzero"/></svg>