<svg clip-rule="evenodd" fill-rule="evenodd" height="64" stroke-linejoin="round" stroke-miterlimit="2" width="64" xmlns="http://www.w3.org/2000/svg"><path d="m0 0h64v64h-64z" fill="#f58282"/><g fill="#fff"><path d="m29.706 39.467c-.009-.453.109-.904.395-1.314.857-1.226 2.538-1.503 3.906-1.725 2.595-.422 5.221-.605 7.845-.55.038-.036.089-.059.155-.062.474-.02.948-.019 1.422.009.75.041 1.494.142 2.225.3.128.014.255.029.383.044h.008c.073.009.129.043.168.089.887.23 1.753.546 2.583.944.656.319 1.314.756 1.705 1.385.333.537.382 1.194.109 1.75.115.008.231.085.247.23.114.995.136 1.999.066 2.998-.01.146-.022.291-.037.436.658-.896 1.4-1.84 2.61-1.622 1.311.236 1.686 1.737 1.619 2.866-.081 1.363-.352 2.811-.904 4.065-.482 1.094-1.491 1.869-2.72 1.833-.933-.029-1.765-.553-2.246-1.322-.595 1.222-1.338 2.376-2.217 3.433-.202.241-.544-.107-.345-.344.63-.753 1.188-1.562 1.669-2.417.225-.401.433-.81.623-1.227-.048-.134.022-.233.123-.274.551-1.267.94-2.595 1.16-3.952-.037-.081-.035-.181.038-.266l.004-.005c.195-1.344.225-2.715.083-4.081-.397.495-.99.805-1.57 1.04-.862.348-1.77.602-2.667.839-1.86.485-3.76.8-5.677.942-1.818.137-3.686.162-5.497-.064-1.371-.17-2.789-.521-3.893-1.408-.432-.347-.814-.819-1.064-1.344.084.821.187 1.64.309 2.455.291 1.954.647 3.929 1.216 5.825.535 1.778 1.415 3.387 2.736 4.702.072.072.085.156.061.23l.011.001c.766.218 1.514.456 2.3.605 2.035.385 4.139.39 6.176.015 1.024-.188 2.029-.472 3-.845.123-.048.244-.096.365-.146.159-.065.739-.365.736.087-.002.203-.344.274-.455.32-.657.276-1.331.512-2.017.704-2.521.708-5.204.825-7.78.359-.617-.111-1.227-.256-1.828-.433-.237-.07-.775-.099-.765-.453l.005-.029c-.052-.001-.105-.022-.153-.07-.747-.74-1.382-1.585-1.885-2.508-.941-1.735-1.359-3.709-1.741-5.63-.404-2.044-.695-4.108-.871-6.184v-.001c-.015-.177.134-.253.271-.23zm19.794 9.806c.42.967 1.489 1.561 2.534 1.334 1.094-.237 1.644-1.126 1.97-2.123.366-1.123.627-2.357.634-3.542.004-.549-.089-1.116-.433-1.561-.313-.404-.788-.63-1.299-.512-1.024.239-1.535 1.321-2.141 2.098-.23 1.489-.657 2.937-1.265 4.306zm-3.986-12.677c-.277-.03-.554-.057-.832-.081-3.726-.328-7.478-.164-11.161.488-1.147.205-2.767.575-3.216 1.82-.502 1.391.707 2.731 1.844 3.329 1.189.625 2.567.819 3.891.9 1.78.109 3.567.072 5.341-.111 1.784-.184 3.549-.525 5.274-1.016.78-.223 1.593-.442 2.326-.797.553-.268 1.171-.669 1.304-1.318.148-.721-.392-1.331-.936-1.722-.656-.469-1.436-.775-2.192-1.036-.539-.186-1.088-.338-1.643-.456z"/><path d="m17.908 11.413c-.271-.078-.523-.207-.719-.419-.355-.384-.348-.943.087-1.258.448-.324 1.092-.343 1.618-.423.035-.005.07-.01.106-.015-.036-.119.005-.266.156-.315 1.298-.417 2.708-.317 3.934.277.423.207.961.605.825 1.145-.137.54-.81.642-1.266.741-1.312.286-2.653.41-3.995.372-.13-.005-.262-.014-.394-.033.023.034.037.076.04.125.186 3.084.178 6.176-.023 9.258-.078 1.18-.195 2.385-.783 3.437-.497.893-1.25 1.607-1.978 2.311-.788.762-1.544 1.536-2.036 2.528-.499 1.008-.727 2.134-.83 3.247-.106 1.146-.088 2.299-.072 3.448.019 1.315.016 2.629-.009 3.944-.047 2.561-.191 5.119-.392 7.673.08-.04.178-.033.256.056 1.996 2.262 5.17 3.109 8.027 2.143 1.99-.683 3.631-2.094 5.203-3.443.067-.057.142-.071.21-.057v-.012c-.032-2.682-.065-5.364-.097-8.046-.027-2.304.082-4.672-.332-6.947-.207-1.086-.534-2.144-.976-3.157-.431-1.003-.965-1.954-1.439-2.937-.457-.948-.828-1.93-.931-2.985-.114-1.161.022-2.348.082-3.509.126-2.365.252-4.73.379-7.095l.002-.002c.017-.312.504-.314.487 0-.143 2.669-.286 5.339-.428 8.009-.064 1.155-.167 2.331.118 3.466.262 1.043.768 2.002 1.259 2.95 1.01 1.955 1.811 3.961 2.068 6.163.132 1.13.152 2.269.167 3.406.014 1.185.028 2.37.042 3.556l.086 7.128c.002.172-.143.249-.274.234.006.061-.016.125-.079.179-.946.811-1.899 1.622-2.94 2.312-1.756 1.163-3.766 1.876-5.891 1.621-1.946-.234-3.792-1.153-5.087-2.634v.002c-.034-.039-.053-.081-.06-.123-.15.069-.361 0-.344-.208.232-2.893.384-5.79.415-8.693.013-1.281-.007-2.56-.016-3.84-.009-1.127.013-2.262.173-3.372.16-1.111.477-2.212 1.055-3.181.536-.897 1.289-1.613 2.039-2.339s1.517-1.485 1.932-2.461c.503-1.176.504-2.531.569-3.788.141-2.747.129-5.499-.036-8.244l-.003.002c-.005-.095.035-.16.095-.197zm-3.495 22.161c-.143-.087-.284-.18-.424-.279-.253-.184-.01-.603.246-.421.131.093.263.181.398.263.125-.029.265.026.285.164 2.592 1.414 5.749.887 8.515.208.176-.043.293.093.303.23.054.038.088.102.08.19-.177 1.988-.149 3.989.084 5.971.016.138-.07.214-.174.229.08.12.06.327-.118.401-2.851 1.141-6.007 1.28-8.948.393h-.002c-.3-.09-.171-.56.129-.469 2.857.861 5.925.722 8.692-.394l.01-.004c-.04-.037-.068-.089-.076-.156-.228-1.946-.26-3.91-.094-5.862-2.754.659-5.857 1.11-8.442-.205-.176 2.062-.241 4.132-.195 6.202.007.314-.48.313-.487 0-.048-2.156.025-4.313.218-6.461zm6.776-24.343c.014.13-.063.283-.231.301-.629.07-1.256.151-1.882.245-.457.068-1.067.071-1.47.325-.499.316.107.753.452.85.446.124.931.085 1.388.07 1.049-.037 2.098-.128 3.123-.356.313-.069 1.192-.206.742-.68-.299-.317-.814-.477-1.22-.592-.297-.083-.599-.138-.902-.163z"/></g></svg>