<svg clip-rule="evenodd" fill-rule="evenodd" height="64" stroke-linejoin="round" stroke-miterlimit="2" width="64" xmlns="http://www.w3.org/2000/svg"><path d="m.539 5.4c-.037-.462.018-.931.189-1.363.285-.72.866-1.237 1.525-1.616.741-.426 1.559-.739 2.353-1.051.872-.343 1.76-.65 2.667-.886.893-.233 1.807-.398 2.729-.459.929-.061 1.865-.003 2.79.097 1.839.198 3.644.633 5.369 1.3.061.023.08.083.068.133-.002.006-.004.012-.005.018-.017.045-.061.076-.119.053-.408-.158-.821-.304-1.239-.436-1.701-.54-3.468-.853-5.249-.951-.908-.05-1.81-.019-2.71.119-.885.137-1.756.358-2.609.63-.864.276-1.711.605-2.545.959-.712.301-1.457.605-2.051 1.111-.569.485-.915 1.145-.957 1.895-.041.737.178 1.478.564 2.101.843 1.358 2.416 2.069 3.874 2.559 1.621.544 3.313.87 5.02.977 1.713.108 3.44-.003 5.125-.333.837-.164 1.663-.381 2.472-.652.767-.257 1.544-.543 2.247-.949.662-.381 1.26-.91 1.536-1.641.273-.723.242-1.53-.001-2.257-.501-1.494-1.888-2.477-3.291-3.05-.06-.024-.078-.085-.067-.135.002-.006.004-.012.005-.018.018-.045.061-.075.119-.051.356.145.704.309 1.037.501 1.37.786 2.5 2.071 2.597 3.708.005.074.007.148.006.222.005.012.006.026.005.041-.033.527-.059 1.055-.077 1.583-.063 1.88-.028 3.762.105 5.638.003.041-.014.07-.041.086-.01.16-.031.319-.064.475-.365 1.734-2.111 2.477-3.608 3.02-1.019.369-2.068.652-3.132.849.403 1.241.76 2.495 1.107 3.753.639 2.322 1.243 4.656 2.027 6.936.8 2.327 1.718 4.616 2.595 6.916.049.127-.156.182-.205.056-.494-1.296-.989-2.593-1.483-3.889-.437-1.148-.87-2.297-1.259-3.462-.379-1.134-.716-2.282-1.038-3.433-.64-2.283-1.222-4.584-1.955-6.839-.472.082-.947.148-1.423.196.492 1.393.924 2.806 1.327 4.227.745 2.624 1.392 5.275 2.107 7.907.363 1.34.757 2.67 1.147 4.002l.627 2.138c.04.136.12.304.09.45-.018.089-.088.177-.187.172-.059-.003-.102-.035-.128-.078l-.93-.372c-.164-.066-.328-.131-.492-.197-.146-.058-.297-.136-.455-.154-.134-.016-.135-.228 0-.212.167.019.315.083.469.145.164.065.328.131.492.196l.936.375c.019-.015.042-.024.071-.026-.023-.089-.052-.177-.077-.265-.053-.181-.106-.361-.159-.541-.105-.361-.211-.721-.317-1.082-.214-.732-.429-1.465-.644-2.198-.708-2.417-1.321-4.861-1.963-7.297-.613-2.324-1.251-4.644-2.042-6.915-.055 1.418-.103 2.836-.148 4.254l-.011.345.606 2.788c.374 1.721.744 3.446 1.261 5.13.499 1.625 1.202 3.2 1.466 4.89.021.134-.183.191-.204.056-.148-.944-.435-1.858-.746-2.76-.282-.817-.575-1.629-.819-2.458-.248-.84-.462-1.69-.661-2.543-.327-1.405-.627-2.816-.93-4.226-.075 2.372-.146 4.744-.219 7.115-.085 2.768-.213 5.539-.173 8.309.002.136-.21.136-.212 0-.022-1.546.013-3.092.06-4.637.084-2.778.171-5.557.256-8.335.034-1.104.067-2.208.102-3.311l-.027-.128c-.01-.045.007-.081.034-.104.049-1.543.101-3.086.163-4.628l-.142.011c-.488.039-.978.06-1.468.063l-.122 4.816c-.074 2.918-.151 5.836-.222 8.755-.035 1.455-.063 2.911-.044 4.367.02 1.463.103 2.922.205 4.38l.674-.574c.233-.199.504-.532.843-.483.134.02.077.224-.057.205-.155-.023-.303.144-.409.234-.122.104-.244.209-.367.313-.25.213-.5.426-.75.639-.094.081-.228-.037-.172-.125-.8-.291-1.535-.734-2.164-1.308-.101-.093.049-.242.15-.15l.05.044c.024-1.555.006-3.106-.059-4.66-.058-1.391-.12-2.781-.117-4.173.003-1.389.052-2.776.122-4.163.046-.939.102-1.878.158-2.817-.191.619-.403 1.233-.622 1.843-.584 1.623-1.207 3.232-1.632 4.906-.433 1.705-.693 3.451-.779 5.208-.004.069-.059.103-.113.102.042.037.058.101.004.148-.287.254-.572.512-.864.761-.234.2-.49.377-.808.392-.078.003-.111-.065-.1-.125l-.005-.001c-.089-.016-.184-.063-.267-.094-.202-.077-.401-.161-.597-.251-.157-.073-.312-.149-.464-.23-.115-.061-.228-.124-.34-.19-.037-.021-.074-.043-.111-.066-.033-.02-.123-.058-.149-.108-.044-.083.046-.193.135-.149.153.076.296.179.446.262.294.162.598.308.908.436.117.048.234.094.353.137.085.032.198.047.191.159l-.001.008h.001c.297-.014.532-.219.745-.405.259-.228.518-.458.777-.686.023-.02.048-.028.072-.028-.017-.016-.027-.041-.025-.072.048-.991.151-1.978.309-2.957.279-1.734.747-3.419 1.333-5.074.574-1.623 1.217-3.226 1.661-4.892.059-1.001.115-2.002.158-3.004-.222.805-.52 1.591-.836 2.362-.45 1.097-.949 2.174-1.383 3.278-.459 1.165-.811 2.367-1.139 3.574-.342 1.261-.669 2.527-1.003 3.791-.329 1.246-.668 2.498-.779 3.786-.012.135-.224.136-.213 0 .125-1.439.522-2.834.889-4.225.335-1.27.661-2.543 1.011-3.809.333-1.199.705-2.384 1.175-3.537.847-2.079 1.931-4.129 2.321-6.359l.005-.179.003-.099c-.517-.048-1.032-.116-1.543-.204-.53 1.218-1.114 2.413-1.516 3.682-.359 1.133-.622 2.293-.995 3.422-.371 1.124-.802 2.228-1.19 3.347-.798 2.295-1.315 4.678-1.678 7.078-.021.135-.225.077-.205-.057.206-1.36.465-2.713.788-4.05.283-1.171.636-2.32 1.04-3.454.403-1.13.836-2.249 1.193-3.394.355-1.142.609-2.315 1.007-3.443.383-1.083.883-2.118 1.343-3.169l-.091-.016c-.886-.166-1.76-.392-2.615-.679-.786-.264-1.564-.578-2.272-1.015-.689-.424-1.325-.976-1.748-1.674-.424-.699-.647-1.539-.557-2.357.003-.028.014-.05.03-.066.018-.408.036-.817.05-1.226.061-1.704.069-3.415-.148-5.109-.006-.052.021-.084.058-.096zm9.279 12.61c-.007.04-.013.081-.02.122l-.007.039c-.043 1.37-.118 2.739-.199 4.107.004.015.004.032-.001.051l-.002.007-.003.055c-.164 2.771-.348 5.545-.332 8.323.008 1.401.082 2.799.136 4.199.055 1.401.061 2.801.038 4.203 0 .048-.027.08-.061.094.546.458 1.169.82 1.839 1.068-.113-1.628-.199-3.257-.209-4.889-.017-2.915.099-5.832.173-8.745l.22-8.677c-.52-.002-1.039-.024-1.556-.066zm10.924 17.47c-.524.445-1.12.803-1.76 1.055-.126.05-.071.255.056.205.677-.267 1.3-.639 1.854-1.11.104-.089-.046-.238-.15-.15zm-2.126.954.002.006c.004.014.005.035.008.053.031.017.048.043.055.072l.02-.005c.021.018.015.035-.018.053 0 .005-.002.01-.003.016.078-.043.092-.176-.015-.193-.018-.003-.034-.004-.049-.002zm-17.819-29.931c.012.148.023.296.032.444.103 1.705.027 3.413-.048 5.118-.001.034-.016.06-.038.077-.004.112-.003.225.005.337.054.81.402 1.593.933 2.202.525.602 1.193 1.055 1.904 1.41.743.372 1.535.645 2.332.878.832.242 1.68.429 2.536.56.382.058.766.105 1.151.141.041-.079.176-.074.198.017.543.045 1.088.068 1.634.069.038-.026.093-.027.13 0 .556-.003 1.112-.029 1.666-.077.037-.063.134-.069.177-.017.074-.007.147-.014.221-.022.453-.048.905-.113 1.354-.193.019-.008.04-.012.061-.011 1.234-.222 2.447-.563 3.615-1.016.736-.286 1.491-.609 2.094-1.131.641-.554.997-1.31 1.022-2.157 0-.028.01-.05.024-.066-.033-.484-.06-.968-.08-1.452-.061-1.459-.062-2.921-.003-4.38-.102.229-.232.446-.393.646-.495.619-1.21 1.022-1.925 1.338-1.605.708-3.325 1.174-5.06 1.42-1.747.248-3.524.271-5.276.06-1.719-.206-3.445-.615-5.04-1.298-1.359-.58-2.668-1.491-3.226-2.897z"/><g fill-rule="nonzero"><path d="m15.301 29.434v16.134l15.72-7.998.138-16.547z" fill="#45b5a6"/><path d="m31.159 21.023 2.022 1.195-15.858 24.545-2.022-1.195z" fill="#45b5a6"/><path d="m17.323 30.629v16.134l15.72-7.998.138-16.547z" fill="#368f83"/><path d="m34.811 16.705 4.459 25.887 23.649 12.617-.345-24.752z" fill="#45b5a6"/><path d="m32.714 17.384 2.097-.679 28.077 38.17-1.448 1.862z" fill="#45b5a6"/><path d="m32.714 17.384-.255 21.421 28.908 17.956-.345-24.753z" fill="#3fa090"/><path d="m19.051 42.284 26.841 13.879 15.238-8.067-23.443-12.134z" fill="#3fa090"/><path d="m18.809 40.053.242 2.231 42.079 5.812.253-2.022z" fill="#3fa090"/><path d="m18.809 40.053c-.824-.425 19.088 9.83 27.336 14.088l15.238-8.067-28.172-14.167z" fill="#45b5a6"/><path d="m45.64 46.671v16.134l15.72-7.998.137-16.547z" fill="#45b5a6"/><path d="m61.497 38.26 2.023 1.195-15.858 24.545-2.022-1.195z" fill="#45b5a6"/><path d="m47.662 47.866v16.134l15.72-7.998.138-16.547z" fill="#368f83"/></g></svg>