<svg clip-rule="evenodd" fill-rule="evenodd" height="64" stroke-linejoin="round" stroke-miterlimit="2" width="64" xmlns="http://www.w3.org/2000/svg"><path d="m56.764 60.88-.001-.005c-.117-4.339-.197-8.68-.238-13.02-.075-7.735-.03-15.47.135-23.203s.45-15.463.854-23.188c.032-.622 1.003-.624.971 0-.227 4.335-.417 8.672-.568 13.01-.27 7.73-.421 15.465-.451 23.199-.03 7.693.059 15.386.265 23.077.226.042.386.244.396.477.012.262-.231.485-.485.485-.052 0-.101-.008-.146-.023-.076.112-.204.187-.384.178-3.622-.178-7.246-.284-10.872-.316-6.467-.057-12.936.119-19.39.527-6.444.407-12.873 1.044-19.271 1.915-.261.035-.52-.059-.597-.339-.063-.229.079-.562.339-.597 3.636-.495 7.281-.92 10.933-1.269 6.438-.613 12.898-.996 19.364-1.145 6.382-.148 12.768-.068 19.146.237zm-36.55-59.451c.071-.179.25-.299.452-.311.011 0 .023-.001.035-.002.873-.065 1.749-.097 2.623-.143 2.019-.106 4.038-.203 6.058-.293 2.807-.125 5.614-.237 8.423-.333 3.228-.11 6.457-.199 9.687-.261 3.325-.063 6.651-.098 9.976-.082.625.002.625.973 0 .97-.402-.002-.805-.003-1.208-.003-3.315-.004-6.63.039-9.944.109-3.207.068-6.413.163-9.618.277-2.732.097-5.464.208-8.194.333-1.897.087-3.792.18-5.688.28-.534.029-1.068.057-1.602.088.101.042.19.116.246.203.067.103.081.258.049.374-.033.121-.108.206-.206.278l-.047.044c-.014.014-.027.028-.04.043l-.015.015c-.014.024-.026.051-.036.069-.02.035-.034.072-.053.107.076-.145.009-.014-.006.031-.013.043-.025.087-.036.131-.015.064-.028.129-.038.194-.042.352-.046.709-.062 1.062-.018.419-.035.839-.05 1.258-.054 1.5-.086 3-.095 4.501-.009 1.506.004 3.013.04 4.519.002.095-.025.182-.073.254.103.15.114.35.023.522-.121.229-.446.305-.664.174-.154-.093-.313-.177-.476-.254-.088-.042-.176-.082-.265-.12l-.048-.02c-.048-.02-.097-.039-.145-.058-.41-.16-.829-.297-1.251-.421-1.509-.446-3.058-.745-4.602-1.045-2.096-.408-4.202-.757-6.317-1.048l-.048.835c-.192 3.455-.34 6.913-.426 10.373-.076 3.092-.104 6.187-.079 9.28.024 3.002.096 6.003.202 9.003.111 3.125.258 6.248.419 9.371.182 3.518.38 7.036.576 10.554.035.625-.936.621-.971 0l-.077-1.383c-.192-3.457-.386-6.915-.56-10.373-.155-3.093-.294-6.187-.395-9.282-.098-3-.159-6.001-.171-9.003-.013-3.123.028-6.247.118-9.37.102-3.519.265-7.037.472-10.551v-.001c-.005-.121.058-.259.142-.343.041-.041.103-.083.17-.11.022-.071.061-.134.117-.182.092-.079.184-.157.277-.234.835-.696 1.711-1.342 2.599-1.968.917-.647 1.847-1.273 2.774-1.905.92-.628 1.838-1.26 2.732-1.923.111-.082.221-.164.33-.247.053-.04.105-.08.157-.12.026-.02.052-.04.079-.06.014-.011.029-.023.044-.034.042-.032-.046.036-.043.033.211-.165.422-.33.63-.499.392-.32.777-.65 1.148-.996.845-.785 1.614-1.68 2.634-2.249.102-.058.213-.075.317-.058zm-.804 14.034.013.005c.076.032-.127-.054-.016-.006zm1.396-13.382-.14.008c-.026.001-.052 0-.076-.004-.04.1-.11.188-.203.24-.121.067-.239.139-.353.215-.062.041-.122.084-.182.127-.028.02-.055.04-.083.061l-.014.011c-.109.087-.218.176-.323.268-.213.185-.417.38-.619.578-.384.374-.763.753-1.163 1.11-.811.725-1.675 1.39-2.553 2.031-.899.656-1.818 1.284-2.739 1.91-.919.626-1.842 1.249-2.747 1.896-.436.311-.867.627-1.292.952-.028.022-.128.1-.009.008-.022.016-.043.033-.065.049-.049.039-.099.078-.149.117-.101.08-.202.16-.302.241l-.108.089c.946.133 1.89.278 2.833.435 1.122.186 2.241.39 3.356.609.73.144 1.46.287 2.186.448.827.183 1.652.386 2.462.638.458.143.922.3 1.366.495-.02-.886-.032-1.772-.036-2.658-.008-1.725.014-3.45.066-5.174.026-.868.059-1.736.1-2.603.018-.37.03-.747.121-1.107.102-.403.316-.743.656-.984zm.226 1.466.006-.052c-.006.043-.012.086-.017.129.003-.025.007-.051.011-.077zm.183-.554c.01-.012.02-.024.025-.028-.008.007-.017.016-.025.028l-.013.017c-.007.01-.005.005-.007.012l.006-.007zm.088-.08.005-.005c.062-.056-.095.069-.022.017zm-1.548-.174.007-.006c.041-.033-.042.033-.04.031z" fill="#fff"/></svg>