<svg clip-rule="evenodd" fill-rule="evenodd" height="100" stroke-linejoin="round" stroke-miterlimit="2" width="100" xmlns="http://www.w3.org/2000/svg" xmlns:xlink="http://www.w3.org/1999/xlink"><clipPath id="a"><path clip-rule="evenodd" d="m0 0h100v100h-100z"/></clipPath><path d="m0 0h100v100h-100z" fill="none"/><g clip-path="url(#a)" fill-rule="nonzero"><path d="m100.409 25.911h-3.1v.96h-16.388c-1.385-1.624-2.719-4.375-5.721-5.795-1.268-.6-10.124-3.473-16.868.775-2.436 1.533-3.868 3.574-4.651 4.946-1.391-.16-8.009-.772-14.1 3.838-6.369 4.821-7.43 11.768-7.603 13.067-.099 4.011-.197 8.022-.296 12.032h-1.033v3.47h17.053l.147-3.101-.886-.073v-10.557c.113-.419.556-1.856 1.993-2.879 1.677-1.193 3.474-.944 3.839-.886.612 1.449 1.745 3.562 3.839 5.389 5.188 4.53 13.603 4.976 19.488 1.255 2.837-1.793 4.572-4.228 5.611-6.201l15.797-.221v1.329c1.157-.025 2.314-.049 3.47-.074-.197-5.758-.394-11.516-.591-17.274" fill="#756b67"/><path d="m36.145 61.812c.55.21-.225 2.145.086 5.554.288 3.149 1.121 3.373.978 5.364-.151 2.1-1.333 5.395-4.249 6.4-2.081.717-5.039.265-6.201-1.649-1.181-1.947.052-4.493.553-5.528 1.126-2.324 2.283-2.339 5.008-5.51 2.422-2.819 3.261-4.848 3.825-4.631" fill="#40a89a"/><path d="m70.438 5.537h17.717v-4.873l-42.594-.664.738 5.167 17.717.37.295 15.28h5.979z" fill="#756b67"/><path d="m42.302 62.922c1.162-.055 1.294 4.06 4.563 9.98 3.019 5.468 4.704 5.212 6.025 8.926 1.394 3.919 1.871 10.817-2.606 14.948-3.196 2.949-8.905 4.479-12.525 1.939-3.683-2.585-3.473-8.169-3.387-10.438.192-5.099 2.274-6.044 4.686-13.942 2.145-7.021 2.052-11.356 3.244-11.413" fill="#40a89a"/></g></svg>