<svg clip-rule="evenodd" fill-rule="evenodd" height="32" stroke-linejoin="round" stroke-miterlimit="2" width="32" xmlns="http://www.w3.org/2000/svg"><g fill-rule="nonzero"><path d="m16 0c-4.345 0-4.89.018-6.597.096-1.703.078-2.866.348-3.884.744-1.052.409-1.944.956-2.834 1.845-.889.89-1.436 1.782-1.845 2.834-.396 1.018-.666 2.181-.744 3.884-.078 1.707-.096 2.252-.096 6.597s.018 4.89.096 6.597c.078 1.703.348 2.866.744 3.884.409 1.052.956 1.944 1.845 2.834.89.889 1.782 1.436 2.834 1.845 1.018.396 2.181.666 3.884.744 1.707.078 2.252.096 6.597.096s4.89-.018 6.597-.096c1.703-.078 2.866-.348 3.884-.744 1.052-.409 1.944-.956 2.834-1.845.889-.89 1.436-1.782 1.845-2.834.396-1.018.666-2.181.744-3.884.078-1.707.096-2.252.096-6.597s-.018-4.89-.096-6.597c-.078-1.703-.348-2.866-.744-3.884-.409-1.052-.956-1.944-1.845-2.834-.89-.889-1.782-1.436-2.834-1.845-1.018-.396-2.181-.666-3.884-.744-1.707-.078-2.252-.096-6.597-.096zm0 2.883c4.272 0 4.778.016 6.465.093 1.56.071 2.408.332 2.971.551.747.29 1.28.637 1.84 1.197s.907 1.093 1.197 1.84c.219.563.48 1.411.551 2.971.077 1.687.093 2.193.093 6.465s-.016 4.778-.093 6.465c-.071 1.56-.332 2.408-.551 2.971-.29.747-.637 1.28-1.197 1.84s-1.093.907-1.84 1.197c-.563.219-1.411.48-2.971.551-1.687.077-2.193.093-6.465.093s-4.778-.016-6.465-.093c-1.56-.071-2.408-.332-2.971-.551-.747-.29-1.28-.637-1.84-1.197s-.907-1.093-1.197-1.84c-.219-.563-.48-1.411-.551-2.971-.077-1.687-.093-2.193-.093-6.465s.016-4.778.093-6.465c.071-1.56.332-2.408.551-2.971.29-.747.637-1.28 1.197-1.84s1.093-.907 1.84-1.197c.563-.219 1.411-.48 2.971-.551 1.687-.077 2.193-.093 6.465-.093z"/><path d="m16 21.333c-2.946 0-5.333-2.387-5.333-5.333s2.387-5.333 5.333-5.333 5.333 2.387 5.333 5.333-2.387 5.333-5.333 5.333zm0-13.549c-4.538 0-8.216 3.678-8.216 8.216s3.678 8.216 8.216 8.216 8.216-3.678 8.216-8.216-3.678-8.216-8.216-8.216z"/><path d="m26.461 7.459c0 1.061-.86 1.92-1.92 1.92-1.061 0-1.92-.859-1.92-1.92 0-1.06.859-1.92 1.92-1.92 1.06 0 1.92.86 1.92 1.92z"/></g></svg>