<svg clip-rule="evenodd" fill-rule="evenodd" height="100" stroke-linejoin="round" stroke-miterlimit="2" width="100" xmlns="http://www.w3.org/2000/svg" xmlns:xlink="http://www.w3.org/1999/xlink"><clipPath id="a"><path clip-rule="evenodd" d="m0 0h100v100h-100z"/></clipPath><path d="m0 0h100v100h-100z" fill="none"/><g clip-path="url(#a)" fill="#756b67" fill-rule="nonzero"><path d="m75.615 75.411c4.908 3.839 9.816 7.678 14.725 11.518-.681 1.166-1.361 2.332-2.041 3.499-1.279 1.766-3.424 4.271-6.707 6.269-12.008 7.306-27.341.568-32.949-1.896-6.653-2.923-17.857-7.846-23.764-20.41-7.705-16.391-.138-32.48 1.021-34.844.826-.924 1.652-1.847 2.478-2.77 5.055 4.179 10.109 8.358 15.163 12.538-.535.874-1.069 1.749-1.604 2.624-.795.648-1.86 1.391-3.207 2.041-1.865.9-3.575 1.284-4.811 1.458-.243 3.054-.222 8.521 2.624 14.142 3.571 7.054 9.562 10.34 15.162 13.412 3.796 2.083 10.051 4.909 18.515 6.124-.272-.929-.814-3.236 0-5.978.961-3.234 3.192-4.999 3.937-5.54.486-.729.972-1.458 1.458-2.187"/><path d="m27.106 39.074c-2.052 1.247-5.604 3.892-7.895 1.649-.478-.468-.694-1.126-.632-1.787.035-.376.514-1.847 1.093-1.379.417.336.082.973-.19 1.255-.472.488-1.183.786-1.782 1.082-1.43.705-2.816.81-4.142-.183-1.193-.893-1.882-2.31-2.462-3.644-.311-.717-.661-1.559-.495-2.354.057-.274.181-.553.375-.758.206-.217.837-.569.989-.075.161.523-.785 1.243-1.14 1.45-.603.352-1.296.493-1.989.446-2.701-.184-4.684-2.763-5.273-5.212-.283-1.176-.297-2.423-.009-3.599.127-.518 1.196-3.477 2.052-2.504.444.505-.107 1.35-.521 1.655-.594.437-1.403.381-2.048.093-1.343-.601-2.031-2.069-2.493-3.379-.966-2.74-1.113-5.748-.447-8.574.187-.795.433-1.577.745-2.331.253-.613.631-1.794 1.245-2.124.778-.416 1.163.469.859 1.072-.348.69-1.21.687-1.836.417-1.497-.647-2.027-2.707-2.375-4.137-.443-1.813-.524-3.676-.31-5.528.097-.837-1.216-.83-1.312 0-.283 2.448-.035 4.954.77 7.287.629 1.822 1.805 3.843 3.99 3.864 1.691.016 3.18-1.834 2.246-3.439-.445-.764-1.417-1.108-2.257-.872-1.004.282-1.487 1.349-1.895 2.213-1.892 4.009-2.132 8.808-.521 12.954.726 1.868 1.972 3.781 4.127 4.074 1.807.246 3.86-1.241 3.429-3.231-.182-.842-.865-1.532-1.764-1.496-.92.036-1.67.807-2.114 1.546-.944 1.572-1.24 3.53-1.015 5.33.46 3.679 3.637 7.832 7.764 7.178 1.535-.243 4.042-1.837 3.287-3.727-.342-.856-1.363-1.138-2.189-.873-.846.271-1.435 1.094-1.636 1.931-.256 1.072.109 2.151.526 3.129.453 1.063.96 2.109 1.672 3.025 1.294 1.664 3.325 2.702 5.435 2.085.977-.287 1.997-.798 2.835-1.374.701-.482 1.347-1.189 1.363-2.087.014-.752-.363-1.55-1.074-1.861-.842-.367-1.696.13-2.19.819-1.167 1.625-.675 3.932.966 5.02 1.732 1.148 3.904.772 5.675-.053 1.123-.523 2.168-1.218 3.225-1.86.721-.438.062-1.573-.662-1.133"/></g></svg>