<svg clip-rule="evenodd" fill-rule="evenodd" height="100" stroke-miterlimit="10" width="100" xmlns="http://www.w3.org/2000/svg"><path d="m0 0h100v100h-100z" fill="none"/><path d="m73.828 43.416-10.015-10.767c-.213-.229-.2-.589.029-.801l14.945-13.903c.229-.213.589-.2.801.029l10.016 10.767c.212.228.199.588-.029.801l-14.945 13.903c-.229.212-.589.199-.802-.029z" fill="none" stroke="#d8bbb4"/><path d="m61.193 28.799h34.623v40.51h-34.623z" fill="#d8bbb4"/><path d="m58.998 49.752h23.947v22.351h-23.947z" fill="#40a89a"/><path d="m73.831 35.85h23.947v9.047h-23.947z" fill="#f58382"/><path d="m95.816 69.309h-34.623v-40.51h34.623zm-38.807 4.696h42.991v-50.301h-42.991z" fill="#938c89" fill-rule="nonzero"/><path d="m17.662 56.728-7.97-5.842c-1.244-.911-1.167-2.35.169-3.198l13.407-8.503c1.336-.848 3.447-.796 4.69.115l7.971 5.842c1.243.912 1.167 2.351-.17 3.198l-13.407 8.504c-1.336.847-3.447.795-4.69-.116z" fill="none" stroke="#d8bbb4"/><path d="m4.845 46.517h40.09v31.982h-40.09z" fill="#d8bbb4"/><path d="m20.095 45.698h27.728v17.645h-27.728z" fill="#40a89a"/><path d="m1.918 68.448h27.728v7.142h-27.728z" fill="#f58382"/><path d="m44.935 78.499h-40.09v-31.982h40.09zm-44.935 3.707h49.779v-39.711h-49.779z" fill="#938c89" fill-rule="nonzero"/></svg>