<svg clip-rule="evenodd" fill-rule="evenodd" height="100" stroke-linejoin="round" stroke-miterlimit="2" width="100" xmlns="http://www.w3.org/2000/svg"><path d="m0 0h100v100h-100z" fill="none"/><g fill-rule="nonzero"><path d="m6.29 45.324c-.487.105-3.119.724-4.44 3.117-1.413 2.56-.75 6.104 1.795 8.502 16.059 2.74 32.118 5.479 48.178 8.219 15.807-4.724 31.614-9.447 47.421-14.17-.464-.782-1.287-2.406-1.417-4.629-.128-2.199.485-3.892.85-4.723-15.586 3.684-31.173 7.368-46.76 11.052-15.209-2.456-30.418-4.912-45.627-7.368" fill="#d8bbb4"/><path d="m100 41.167-41.187-6.801c-18.452 3.653-36.904 7.305-55.357 10.958-.526.365-2.701 1.959-3.306 4.912-.859 4.194 2.241 7.258 2.456 7.463l49.406 7.935 47.705-14.548-.189-1.039-47.516 14.359c-15.934-2.708-31.867-5.416-47.8-8.124-.14-.113-2.723-2.271-2.267-5.668.337-2.516 2.099-3.933 3.094-4.545l46.973 9.079 47.893-13.13c.002 0 .091-.849.09-.849h-.002z" fill="#938c89"/></g></svg>