<svg clip-rule="evenodd" fill-rule="evenodd" height="100" stroke-linejoin="round" stroke-miterlimit="2" width="100" xmlns="http://www.w3.org/2000/svg" xmlns:xlink="http://www.w3.org/1999/xlink"><clipPath id="a"><path clip-rule="evenodd" d="m0 0h100v100h-100z"/></clipPath><path d="m0 0h100v100h-100z" fill="none"/><g clip-path="url(#a)" fill-rule="nonzero"><path d="m46.427 82.213-8.442-4.812c-.665-.379-.899-1.234-.52-1.899l29.713-52.123c.379-.665 1.233-.899 1.898-.52l8.442 4.812c.665.379.899 1.234.52 1.899l-29.713 52.123c-.378.665-1.233.899-1.898.52" fill="#938c89"/><path d="m94.559 11.991-.985 1.051.293-1.472-.386-.22-.728.924.197-1.226-.847-.483-2.72 3.625 2.107-3.975-.38-.216-.988.476.425-.797-.787-.449-3.554 6.327 3.34-6.449-.363-.207-.574.232.287-.395-1.239-.707-.599.458.344-.603-.466-.266-2.318 3.255 1.709-3.602-.922-.526-.674.775.456-.899-.738-.42-6.808 10.707 6.234-11.035-.923-.526-2.322 3.373 1.843-3.646-.573-.327-1.395 1.983 1.087-2.158-1.214-.692-5.539 8.793 4.977-9.114-1.403-.799-1.509 1.977.717-2.429-.248-.142-3.869 6.329 3.355-6.621-1.045-.596-1.721 2.396 1.317-2.626-.633-.361-4.884 8.567 4.042-9.026c-1.105-.524-2.442-.126-3.058.955l-10.317 18.098c-.646 1.134-.251 2.576.882 3.222l20.271 11.555c1.133.646 2.576.251 3.222-.882l10.317-18.098c.606-1.065.286-2.393-.693-3.088" fill="#d8bbb4"/><path d="m76.771 46.436-23.461-13.374c-.252-.144-.34-.465-.196-.717l8.838-15.505c.144-.252.465-.34.718-.196l23.46 13.373c.253.144.341.465.197.718l-8.838 15.504c-.144.253-.465.341-.718.197" fill="#938c89"/><path d="m70.012 53.609-19.431-11.076c-1.359-.775-1.838-2.522-1.062-3.881l9.838-17.259c.775-1.359 2.521-1.838 3.881-1.063l19.43 11.077c1.36.775 1.838 2.521 1.063 3.881l-9.838 17.258c-.775 1.36-2.521 1.839-3.881 1.063" fill="#938c89"/><g fill="#756b67"><path d="m79.659 95.194-7.047 4.61c-.555.364-1.307.206-1.67-.349l-50.844-77.715c-.363-.556-.206-1.307.349-1.67l7.048-4.611c.555-.363 1.306-.206 1.669.349l50.844 77.716c.364.555.206 1.306-.349 1.67"/><path d="m49.75 12.518-36.03 23.572c-1.087.711-2.559.403-3.27-.684l-5.626-8.599c-.712-1.087-.404-2.559.683-3.27l23.81-14.996 21.116.707c.711 1.087.404 2.559-.683 3.27"/></g></g></svg>